<svg width="27" height="28" viewBox="0 0 27 28" fill="none" xmlns="http://www.w3.org/2000/svg">
<path fill-rule="evenodd" clip-rule="evenodd" d="M12.992 1.50366C12.6836 1.50352 12.3979 1.5034 12.1323 1.50381V1.5C9.29045 1.50318 8.74533 1.52224 7.33871 1.58578C5.85203 1.65409 5.04484 1.9019 4.50735 2.11158C3.79578 2.38862 3.28751 2.71904 2.75383 3.25279C2.22016 3.78653 1.88915 4.29486 1.61278 5.00653C1.40407 5.54409 1.15566 6.35106 1.08768 7.83793C1.01461 9.44552 1 9.92589 1 13.9983C1 18.0706 1.01461 18.5535 1.08768 20.1611C1.15534 21.648 1.40407 22.455 1.61278 22.9919C1.88978 23.7039 2.22016 24.2109 2.75383 24.7447C3.28751 25.2784 3.79578 25.6088 4.50735 25.8852C5.04516 26.094 5.85203 26.3424 7.33871 26.411C8.9461 26.4841 9.42863 26.5 13.5002 26.5C17.5714 26.5 18.0542 26.4841 19.6616 26.411C21.1483 26.3431 21.9558 26.0952 22.4926 25.8856C23.2045 25.6092 23.7112 25.2787 24.2449 24.745C24.7786 24.2116 25.1096 23.7048 25.386 22.9932C25.5947 22.4562 25.8431 21.6493 25.9111 20.1624C25.9841 18.5548 26 18.0719 26 14.0021C26 9.93225 25.9841 9.44933 25.9111 7.84174C25.8434 6.35487 25.5947 5.5479 25.386 5.01097C25.1089 4.29931 24.7786 3.79098 24.2449 3.25723C23.7115 2.72349 23.2042 2.39307 22.4926 2.11667C21.9552 1.90794 21.1483 1.65949 19.6616 1.5915C18.0539 1.51843 17.5714 1.50381 13.5002 1.50381C13.3242 1.50381 13.1549 1.50374 12.992 1.50366ZM19.8097 5.86529C19.8097 4.85467 20.6293 4.03594 21.6394 4.03594V4.0353C22.6496 4.0353 23.4692 4.85499 23.4692 5.86529C23.4692 6.8756 22.6496 7.69528 21.6394 7.69528C20.6293 7.69528 19.8097 6.8756 19.8097 5.86529Z" fill="white"/>
<path d="M12.1323 1.50381H11.3823V2.25499L12.1335 2.25381L12.1323 1.50381ZM12.992 1.50366L12.9923 0.753663L12.992 1.50366ZM12.1323 1.5H12.8823V0.749161L12.1315 0.75L12.1323 1.5ZM7.33871 1.58578L7.30486 0.836545L7.30428 0.836571L7.33871 1.58578ZM4.50735 2.11158L4.77946 2.81048L4.77993 2.8103L4.50735 2.11158ZM2.75383 3.25279L2.22347 2.72249L2.22347 2.72249L2.75383 3.25279ZM1.61278 5.00653L0.913646 4.73502L0.913623 4.73508L1.61278 5.00653ZM1.08768 7.83793L0.338458 7.80367L0.338449 7.80387L1.08768 7.83793ZM1.08768 20.1611L0.338449 20.1952L0.338451 20.1952L1.08768 20.1611ZM1.61278 22.9919L0.913731 23.2636L0.913815 23.2638L1.61278 22.9919ZM4.50735 25.8852L4.23579 26.5843L4.23598 26.5844L4.50735 25.8852ZM7.33871 26.411L7.30412 27.1602L7.30465 27.1603L7.33871 26.411ZM19.6616 26.411L19.6957 27.1603L19.6959 27.1603L19.6616 26.411ZM22.4926 25.8856L22.2212 25.1864L22.2198 25.187L22.4926 25.8856ZM24.2449 24.745L23.7147 24.2145L23.7145 24.2147L24.2449 24.745ZM25.386 22.9932L24.6869 22.7214L24.6868 22.7217L25.386 22.9932ZM25.9111 20.1624L26.6603 20.1966L26.6603 20.1964L25.9111 20.1624ZM25.9111 7.84174L26.6603 7.80769L26.6603 7.80764L25.9111 7.84174ZM25.386 5.01097L26.085 4.73925L26.0849 4.73893L25.386 5.01097ZM24.2449 3.25723L23.7144 3.78737L23.7145 3.78753L24.2449 3.25723ZM22.4926 2.11667L22.7642 1.41756L22.7642 1.41754L22.4926 2.11667ZM19.6616 1.5915L19.6959 0.842282L19.6957 0.842273L19.6616 1.5915ZM21.6394 4.03594V4.78594H22.3894V4.03594H21.6394ZM21.6394 4.0353V3.2853H20.8894V4.0353H21.6394ZM12.1335 2.25381C12.3982 2.2534 12.6831 2.25352 12.9916 2.25366L12.9923 0.753663C12.6841 0.753525 12.3976 0.753396 12.1311 0.753813L12.1335 2.25381ZM11.3823 1.5V1.50381H12.8823V1.5H11.3823ZM7.37255 2.33502C8.76497 2.27212 9.29852 2.25317 12.1331 2.25L12.1315 0.75C9.28238 0.753186 8.7257 0.772362 7.30486 0.836545L7.37255 2.33502ZM4.77993 2.8103C5.24185 2.6301 5.96863 2.39952 7.37313 2.33499L7.30428 0.836571C5.73544 0.908653 4.84784 1.1737 4.23477 1.41287L4.77993 2.8103ZM3.2842 3.78308C3.74329 3.32393 4.16325 3.05039 4.77946 2.81048L4.23525 1.41269C3.42831 1.72685 2.83174 2.11415 2.22347 2.72249L3.2842 3.78308ZM2.31191 5.27803C2.55095 4.66249 2.82482 4.24252 3.2842 3.78308L2.22347 2.72249C1.61549 3.33055 1.22734 3.92724 0.913646 4.73502L2.31191 5.27803ZM1.83689 7.87218C1.90109 6.46805 2.13212 5.7411 2.31193 5.27797L0.913623 4.73508C0.676018 5.34707 0.410222 6.23407 0.338458 7.80367L1.83689 7.87218ZM1.75 13.9983C1.75 9.92876 1.76463 9.4621 1.8369 7.87198L0.338449 7.80387C0.264592 9.42894 0.25 9.92302 0.25 13.9983H1.75ZM1.8369 20.1271C1.76463 18.537 1.75 18.0678 1.75 13.9983H0.25C0.25 18.0735 0.264592 18.5701 0.338449 20.1952L1.8369 20.1271ZM2.31182 22.7202C2.13209 22.2578 1.90079 21.531 1.8369 20.127L0.338451 20.1952C0.409887 21.765 0.676051 22.6521 0.913731 23.2636L2.31182 22.7202ZM3.2842 24.2144C2.82475 23.7549 2.55144 23.336 2.31174 22.7199L0.913815 23.2638C1.22813 24.0717 1.61556 24.667 2.22347 25.275L3.2842 24.2144ZM4.77891 25.1861C4.1631 24.9469 3.74329 24.6735 3.2842 24.2144L2.22347 25.275C2.83174 25.8833 3.42846 26.2707 4.23579 26.5843L4.77891 25.1861ZM7.37329 25.6618C5.96925 25.597 5.24226 25.366 4.77872 25.1861L4.23598 26.5844C4.84806 26.822 5.73481 27.0878 7.30412 27.1602L7.37329 25.6618ZM13.5002 25.75C9.43199 25.75 8.96294 25.7341 7.37277 25.6618L7.30465 27.1603C8.92926 27.2341 9.42527 27.25 13.5002 27.25V25.75ZM19.6275 25.6618C18.0374 25.7341 17.568 25.75 13.5002 25.75V27.25C17.5747 27.25 18.0711 27.2341 19.6957 27.1603L19.6275 25.6618ZM22.2198 25.187C21.7588 25.367 21.0319 25.5976 19.6273 25.6618L19.6959 27.1603C21.2647 27.0885 22.1528 26.8235 22.7655 26.5842L22.2198 25.187ZM23.7145 24.2147C23.255 24.6743 22.8367 24.9474 22.2212 25.1864L22.7641 26.5847C23.5724 26.2709 24.1674 25.8832 24.7753 25.2753L23.7145 24.2147ZM24.6868 22.7217C24.448 23.3366 24.1744 23.755 23.7147 24.2145L24.7751 25.2754C25.3828 24.6681 25.7712 24.073 26.0851 23.2647L24.6868 22.7217ZM25.1618 20.1281C25.0976 21.5323 24.8666 22.2592 24.6869 22.7214L26.085 23.2649C26.3227 22.6533 26.5885 21.7662 26.6603 20.1966L25.1618 20.1281ZM25.25 14.0021C25.25 18.0685 25.2341 18.538 25.1618 20.1283L26.6603 20.1964C26.7341 18.5716 26.75 18.0753 26.75 14.0021H25.25ZM25.1618 7.87579C25.2341 9.46617 25.25 9.93561 25.25 14.0021H26.75C26.75 9.92888 26.7341 9.43249 26.6603 7.80769L25.1618 7.87579ZM24.6869 5.2827C24.8666 5.74508 25.0979 6.47188 25.1618 7.87583L26.6603 7.80764C26.5888 6.23786 26.3227 5.35071 26.085 4.73925L24.6869 5.2827ZM23.7145 3.78753C24.1736 4.24668 24.4471 4.6667 24.687 5.28302L26.0849 4.73893C25.7708 3.93192 25.3835 3.33528 24.7753 2.72694L23.7145 3.78753ZM22.2211 2.81578C22.8365 3.05485 23.2554 3.32808 23.7144 3.78737L24.7754 2.7271C24.1677 2.11889 23.5719 1.7313 22.7642 1.41756L22.2211 2.81578ZM19.6273 2.34072C21.0313 2.40492 21.7581 2.63598 22.2211 2.8158L22.7642 1.41754C22.1522 1.17989 21.2653 0.914056 19.6959 0.842283L19.6273 2.34072ZM13.5002 2.25381C17.5685 2.25381 18.0373 2.26845 19.6276 2.34073L19.6957 0.842273C18.0705 0.768406 17.5742 0.753812 13.5002 0.753812V2.25381ZM12.9916 2.25366C13.1546 2.25374 13.324 2.25381 13.5002 2.25381V0.753812C13.3244 0.753812 13.1553 0.753737 12.9923 0.753663L12.9916 2.25366ZM21.6394 3.28594C20.2154 3.28594 19.0597 4.44012 19.0597 5.86529H20.5597C20.5597 5.26922 21.0432 4.78594 21.6394 4.78594V3.28594ZM20.8894 4.0353V4.03594H22.3894V4.0353H20.8894ZM24.2192 5.86529C24.2192 4.44086 23.0639 3.2853 21.6394 3.2853V4.7853C22.2353 4.7853 22.7192 5.26911 22.7192 5.86529H24.2192ZM21.6394 8.44528C23.0639 8.44528 24.2192 7.28972 24.2192 5.86529H22.7192C22.7192 6.46147 22.2353 6.94528 21.6394 6.94528V8.44528ZM19.0597 5.86529C19.0597 7.28972 20.215 8.44528 21.6394 8.44528V6.94528C21.0436 6.94528 20.5597 6.46147 20.5597 5.86529H19.0597Z" fill="black"/>
<path fill-rule="evenodd" clip-rule="evenodd" d="M13.4988 7.33363C17.1828 7.33363 20.1697 10.3205 20.1697 14.0054C20.1697 17.6899 17.1828 20.6772 13.4988 20.6772C9.81437 20.6772 6.82788 17.6899 6.82788 14.0054C6.82788 10.3205 9.81437 7.33363 13.4988 7.33363Z" fill="white" stroke="black" stroke-width="1.5"/>
</svg>
