<svg width="27" height="26" viewBox="0 0 27 26" fill="none" xmlns="http://www.w3.org/2000/svg">
<path fill-rule="evenodd" clip-rule="evenodd" d="M6.37371 3.32572C6.33694 1.65666 5.14339 0.385406 3.20524 0.385406C1.26709 0.385406 0 1.65666 0 3.32572C0 4.9602 1.22964 6.26806 3.1317 6.26806H3.1679C5.14339 6.26806 6.37371 4.9602 6.37371 3.32572ZM6.00045 8.59149H0.3349V25.6141H6.00045V8.59149ZM19.9094 8.19178C23.6376 8.19178 26.4326 10.6253 26.4326 15.8539L26.4324 25.6141H20.7671V16.507C20.7671 14.2195 19.9472 12.6586 17.8963 12.6586C16.331 12.6586 15.3987 13.7109 14.9893 14.7272C14.8395 15.0915 14.8027 15.599 14.8027 16.1077V25.6146H9.13647C9.13647 25.6146 9.21115 10.1893 9.13647 8.59196H14.8027V11.0031C15.5547 9.84401 16.9014 8.19178 19.9094 8.19178Z" fill="black"/>
</svg>
