<svg width="25" height="26" viewBox="0 0 25 26" fill="none" xmlns="http://www.w3.org/2000/svg">
<path fill-rule="evenodd" clip-rule="evenodd" d="M12.1389 7.15039L12.1931 8.23171L11.2899 8.0993C8.0023 7.59175 5.13014 5.87046 2.69152 2.97958L1.4993 1.54518L1.19222 2.60443C0.541916 4.96568 0.957386 7.45934 2.31218 9.13649C3.03473 10.0633 2.87216 10.1957 1.62575 9.64405C1.19222 9.46751 0.812875 9.3351 0.776747 9.4013C0.6503 9.55578 1.08383 11.5639 1.42705 12.3584C1.89671 13.4618 2.85409 14.5431 3.9018 15.1831L4.78693 15.6906L3.73922 15.7127C2.72765 15.7127 2.69152 15.7348 2.7999 16.1982C3.16118 17.6326 4.58823 19.1553 6.17785 19.8173L7.29781 20.2807L6.32236 20.9869C4.87725 22.002 3.17924 22.5758 1.48124 22.6199C0.668363 22.642 0 22.7302 0 22.7964C0 23.0171 2.20379 24.2529 3.48633 24.7384C7.33393 26.1728 11.9041 25.5549 15.3362 23.1054C17.7749 21.362 20.2135 17.8974 21.3515 14.5431C21.9657 12.7556 22.5798 9.48957 22.5798 7.92276C22.5798 6.90765 22.634 6.77524 23.6456 5.56151C24.2417 4.85534 24.8017 4.08297 24.9101 3.86229C25.0907 3.44301 25.0727 3.44301 24.1514 3.81816C22.616 4.48019 22.3992 4.39192 23.1579 3.39887C23.7179 2.6927 24.3862 1.41277 24.3862 1.03762C24.3862 0.971417 24.1153 1.08176 23.8082 1.28037C23.483 1.50104 22.7605 1.83206 22.2186 2.03067L21.2431 2.40582L20.358 1.67759C19.8703 1.28037 19.1838 0.839011 18.8226 0.706604C17.9013 0.397655 16.4923 0.441791 15.6614 0.794875C13.4034 1.78792 11.9764 4.34778 12.1389 7.15039Z" fill="black"/>
</svg>
